<?xml version="1.0" encoding="utf-8"?>
<!-- Generator: Adobe Illustrator 22.1.0, SVG Export Plug-In . SVG Version: 6.00 Build 0)  -->
<svg version="1.1" id="圖層_1" xmlns="http://www.w3.org/2000/svg" xmlns:xlink="http://www.w3.org/1999/xlink" x="0px" y="0px"
	 viewBox="0 0 221.3 106" style="enable-background:new 0 0 221.3 106;" xml:space="preserve">
<style type="text/css">
	.st0{font-family:'BohemPress';}
	.st1{font-size:20.2034px;}
	.st2{font-family:'Courier';}
</style>
<g>
	<path d="M200.1,44.3c-0.1,0-0.1-0.1-0.2-0.1c-0.6-0.3-1.1-0.7-1.1-1.3c0.1-0.6,0.6-1.1,1.3-1.2c0.8-0.1,1.5,0,1.9,0.6
		c0.6,0.9-0.1,1.5-0.7,2C200.9,44.3,200.5,44.3,200.1,44.3z"/>
	<path d="M23.3,44.3c-0.7-0.4-1.7-0.7-1.2-1.8c0.4-0.9,1.7-1.1,2.6-0.6c1.1,0.6,0.9,1.5-0.4,2.4C24,44.3,23.6,44.3,23.3,44.3z"/>
	<path d="M138.5,39.1c2.8,0.6,5.5,0.6,8.1,0.4c2.4-0.2,4.8-0.4,7.1-1.3c0.9-0.3,0.9,0.4,1.1,0.8c0.3,0.6-0.1,0.7-0.5,0.9
		c-2.8,1-5.7,1.3-8.7,1.4c-5.1,0.1-10-0.8-14.4-3.6c-0.8-0.5-1.6-1.1-2.3-1.7c-0.5-0.4-0.7-0.4-1.1,0.1c-2.6,3.3-5.8,5.8-9.8,7.1
		c-0.7,0.2-1.4,0.4-2.1-0.1c-0.7-0.5-0.7-1-0.1-1.5c0.7-0.6,1.8-0.5,2.3,0.3c0.4,0.5,0.7,0.5,1.2,0.3c2.7-1.3,4.9-3.1,6.7-5.5
		c0.2-0.3,0.3-0.5,0.6-0.8c0.6-0.8,0.7-1.4-0.1-2.2c-1.1-1.2-2.1-2.5-2.4-4.1c-0.2-1.6,0.4-2.7,1.8-3.1c1.5-0.4,3.1,0.4,3.6,1.8
		c0.7,1.8,0.4,3.6-0.3,5.2c-0.5,1.1,0,1.5,0.6,1.9c2.4,1.6,5,2.1,7.8,1.8c1.9-0.2,3.6-1,4.9-2.5c1.2-1.3,1.1-2.6-0.2-3.7
		c-1.5-1.3-4.4-1.2-5.9,0.2c-0.3,0.3-0.6,0.7-0.5,1.3c0.7-0.3,1.4-0.5,2.1-0.1c0.4,0.2,0.6,0.4,0.6,0.8c0,0.4-0.2,0.6-0.5,0.8
		c-0.8,0.4-1.6,0.3-2.2-0.4c-0.6-0.7-0.7-1.4-0.2-2.2c1.5-2.1,4.9-2.9,7.6-1.7c1,0.4,1.8,1,2.6,1.7c0.3,0.3,0.5,0.5,0.9,0.4
		c0.3,0,0.5-0.1,0.6-0.4c0.1-0.3-0.2-0.4-0.4-0.6c-0.3-0.3-0.8-0.3-1.2-0.4c-1.6-0.5-2.4-1.4-2.5-3.1c-0.1-1.4-0.5-2.5-1.5-3.4
		c-0.1-0.1-0.3-0.2-0.2-0.4c0.1-0.2,0.3-0.2,0.5-0.1c1.8,0.6,3.7-0.4,5.8,0.1c-1.3-1.3-2.4-2.2-3-3.6c-1.3-2.9-1.2-5.5,1-7.9
		c2.1-2.3,4.7-3.4,7.8-3c0.7,0.1,1.3,0.3,1.8,0.7c0.3,0.2,0.4,0.6,0.3,1c-0.1,0.4-0.4,0.4-0.8,0.5c-0.6,0.1-1.1-0.2-1.5-0.5
		c-1.8-1.2-3.3-1.1-4.8,0.4c-2,2-1.8,4.6,0.4,6.9c1.4,1.4,2.8,2.8,3.7,4.5c1.7,3.1,1.8,5.4,0,8.4c-3.1,5-7.9,7.2-13.5,8.1
		c-0.2,0-0.4,0.1-0.5,0.1C138.7,38.8,138.7,38.9,138.5,39.1z"/>
	<path d="M88.6,32c-1.7-2.1-4.1-2.7-6.1-1.4c-1.8,1.1-1.9,2.9-0.4,4.4c3.4,3.2,9.6,2.6,12.8,0c0.4-0.3,0.5-0.7,0.3-1.2
		c-0.3-0.8-0.5-1.6-0.7-2.4c-0.7-2.2,0.6-5.5,3.4-5c1,0.2,1.8,0.6,2.1,1.7c0.3,0.6,0.3,1.2,0,1.8c-0.3,1.7-1.5,3-2.6,4.3
		c-0.3,0.4-0.4,0.6-0.2,1c1.9,3,4.4,5.3,7.6,6.9c0.5,0.3,1,0.7,1.4-0.3c0.3-0.8,1.9-0.8,2.5-0.1c0.4,0.5,0.3,1.2-0.3,1.6
		c-0.6,0.3-1.2,0.3-1.8,0.1c-3.5-1-6.3-3.1-8.7-5.6c-0.6-0.6-1.1-1.7-1.8-1.9c-0.7-0.2-1.3,0.9-2,1.4c-4.6,3.1-9.7,4.2-15.1,4.1
		c-3,0-5.9-0.4-8.7-1.3c-0.3-0.1-1.1,0-0.8-0.6c0.2-0.5,0.1-1.5,1.3-1.1c4.9,1.5,9.9,1.6,15.1,0.9c-0.1-0.4-0.4-0.4-0.7-0.4
		c-4.7-0.6-8.8-2.4-12.1-5.9c-1.4-1.5-2.5-3.3-2.6-5.5c-0.3-0.7-0.3-1.5,0-2.2c0.4-2.5,1.9-4.3,3.5-6c1-1,1.9-2,2.7-3.2
		c0.6-1,0.6-3.1,0-3.9c-1.1-1.5-2.4-2.7-4.5-2.4c-0.2,0-0.5,0.2-0.7,0.3c-0.3,0.2-0.5,0.4-0.8,0.5c-0.5,0.3-1.1,0.5-1.7,0.2
		c-0.3-0.2-0.5-0.5-0.4-0.8C68.8,9.2,69.4,9,70,8.8c3.1-0.7,5.8,0.3,8.1,2.4c3.3,3,2.7,8-0.4,10.8c-0.3,0.2-0.6,0.4-0.7,0.9
		c1.9-0.1,3.7,0.6,5.6,0.1c0.2,0.5-0.1,0.7-0.3,0.9c-0.8,0.8-1.1,1.8-1.2,2.8c-0.2,2.1-0.9,3-2.9,3.6c-0.2,0.1-0.5,0.1-0.7,0.2
		c-0.3,0.1-0.4,0.4-0.3,0.7c0.1,0.4,0.5,0.4,0.8,0.3c0.4-0.2,0.7-0.5,1-0.7c2.4-2.1,5.9-2.5,8.5-0.9c0.6,0.4,1.3,0.8,1.4,1.7
		C88.9,31.8,89,32,88.6,32z"/>
	<path d="M129,14.7c0.9-0.4,1.7-0.8,2.6-1c1.3-0.4,2.6-0.5,3.8,0.3c0.6,0.3,0.9,0.7,0.6,1.4c-0.3,0.7-0.9,0.5-1.5,0.5
		c-0.1,0-0.2,0-0.3-0.1c-0.9-0.9-1.9-1.3-3.2-0.9c-1.6,0.5-3,1.3-4.1,2.6c-1.1,1.3-1.6,2.8-2.5,4.2c-1.5,2.4-3.6,3.7-6.4,4.1
		c-0.1,0-0.3,0.1-0.4,0.1c0.4,0.5,1,0.6,1.4,1c0.5,0.6,0.8,1.1,0.2,1.7c-0.6,0.6-1.7,0.6-2.1,0c-0.5-0.7-0.2-1.2,0.5-1.6
		c0.1,0,0.1-0.1,0.1-0.2c-1.6-1-3.8-0.3-4.5,1.5c-0.8,2.1-0.8,2.2,1.1,3.5c0.8,0.5,1.6,1,2.4,1.5c0.4,0.3,0.6,0.6,0.2,1
		c-2.4,2.3-3.7,5.1-4.5,8.2c0,0.1-0.1,0.1-0.2,0.2c-0.5-0.2-0.5-0.7-0.6-1.1c-0.7-2.9-2.1-5.4-4.2-7.4c-0.4-0.4-0.4-0.5,0.1-0.7
		c1-0.6,1.8-1.2,2.8-1.8c1-0.5,1.3-1.3,1.2-2.4c-0.2-2.5-3-3.6-4.9-2.5c0,0.1,0.1,0.1,0.1,0.2c0.5,0.3,1.2,0.7,0.8,1.4
		c-0.4,0.7-1.2,0.8-1.9,0.5c-0.9-0.4-0.9-1.4-0.1-2.1c0.4-0.3,0.8-0.5,1.4-0.9c-2.2-0.4-4.2-1.1-5.7-2.7c-1-1-1.6-2.2-2.3-3.5
		c-1.3-2.6-3.1-4.6-6.1-5c-0.8-0.1-1.6,0-2.1,0.7c-0.4,0.5-1,0.6-1.6,0.5c-0.4-0.1-0.8-0.3-0.9-0.7c-0.1-0.4,0.1-0.7,0.4-0.9
		c0.8-0.8,1.9-0.9,2.9-0.8c1.3,0.1,2.6,0.7,3.9,1.3c0-0.9-0.2-1.7,0.6-2.3c0.2-0.2,0.4-0.4,0.7-0.2c1.8,1,3.3,2.2,3.8,4.4
		c0.1,0.4,0.1,0.9-0.1,1.3c-0.1,0.3-0.1,0.6,0.2,0.8c0.2,0.1,0.3,0.1,0.5,0c0.3-0.2,0.1-0.5,0.1-0.7c-0.2-1.4,0.5-2.3,1.5-3.1
		c0.3-0.3,0.6-0.3,0.9-0.1c1.7,1.3,3.5,2.6,3.9,5c0.2,0.8,0.1,1.6-0.1,2.3c-0.4,1.3-0.2,2.1,0.7,2.6c0.7,0.4,2.6,0.3,3.2-0.3
		c0.4-0.3,0.2-0.7,0-1c-0.9-1.3-0.4-2.5,0.3-3.7c0.3-0.5,0.7-0.5,1.1-0.1c0.9,1,1.1,2.6,0.4,3.9c-0.3,0.5-0.1,0.7,0.2,0.9
		c0.6,0.4,1.3,0.5,2.1,0.5c1.4-0.1,2.1-0.8,1.8-2.1c-0.9-3.5,0.5-5.9,3.3-7.8c0.6-0.4,1-0.5,1.6,0c0.9,0.8,1.4,1.7,1.2,2.9
		c0,0.3-0.1,0.7,0.4,0.7c0.4,0,0.4-0.4,0.4-0.7c-0.5-2.7,1.1-4.3,3.2-5.5c0.9-0.5,1.2-0.3,1.6,0.7C129,13.6,128.8,14.1,129,14.7z"/>
	<path d="M196.4,28.4c1.7-0.5,3.1-0.5,4.6-0.4c1.5,0.1,3,0.4,4.2,1.4c0.7,0.6,0.9,1.3,0.6,2.1c-0.2,0.7-0.9,1-1.5,0.9
		c-0.9,0-1.6-0.5-1.8-1.3c-0.3-1.5-1.4-1.9-2.7-2c-3.4-0.5-6.5,0.6-9.4,2.3c-2.2,1.3-4,3.1-6.3,4.2c-4,2-8.2,3.4-12.7,2.7
		c-2.6-0.4-4.8-1.5-6.5-3.7c-0.4-0.6-0.7-0.5-1.2-0.1c-1.5,1.4-3.1,2.7-5,3.5c-0.5,0.2-1.1,1-1.5,0.1c-0.4-0.8,0-1.4,0.9-1.8
		c1.6-0.7,3-1.7,4.5-2.7c0.8-0.6,1-1.2,0.6-2.1c-0.5-1.2-0.8-2.5-0.2-3.8c0.7-1.4,2.2-2.1,3.5-1.5c1.3,0.6,1.7,2.4,0.8,3.7
		c-0.4,0.7-0.9,1.4-1.4,2c-0.7,1-0.7,1.6,0.3,2.4c1.4,1.3,3.1,1.8,5,1.4c1.5-0.3,2.3-1.3,2.8-2.6c0.5-1.1,0.7-2.4,1.5-3.4
		c1.9-2.3,4.4-2.9,7.2-3.2c1.8-0.2,3.5,0.1,5.3,0.4c0.3,0,0.6,0.1,0.7,0.4c0.1,0.3-0.2,0.5-0.4,0.7c-0.6,0.4-1.3,0.8-2,1.3
		c-0.4,0.3-0.9,0.7-0.6,1.2c0.3,0.5,0.9,0.2,1.4,0c0.6-0.3,0.9-0.9,1.2-1.4c0.9-1.8,2.6-2.4,4.3-2.9c1.9-0.5,3.7-0.2,5.5,0.2
		c0.2,0,0.5,0.1,0.5,0.3c0.1,0.3-0.3,0.4-0.5,0.4C197.6,27.6,197,27.6,196.4,28.4z"/>
	<path d="M56.9,27.5c0.5-1.1,1.4-1.6,2.5-1.4c1.1,0.2,2.1,1.1,2.2,2.2c0.1,1.3,0.2,2.6-0.5,3.8c-0.3,0.5-0.2,0.8,0.3,1.3
		c1.6,1.2,3.2,2.4,5,3.2c0.4,0.2,0.7,0.4,0.8,0.8c0.1,0.4,0.1,0.8-0.2,1.1c-0.3,0.3-0.7,0-1-0.1c-2-0.9-3.7-2.2-5.3-3.8
		c-0.4-0.3-0.6-0.5-1,0c-3.7,4.2-8.3,4.6-13.4,3.4c-3.7-0.9-7.1-2.6-10.1-5c-3.2-2.5-6.7-4.2-11-3.9c-0.6,0.1-1.2,0.1-1.8,0.3
		c-0.8,0.3-1.5,0.8-1.6,1.7c-0.1,0.9-0.8,1.2-1.5,1.3c-0.7,0.1-1.3-0.2-1.6-0.8c-0.3-0.6-0.2-1.3,0.2-1.9c0.7-0.9,1.6-1.3,2.7-1.5
		c1.9-0.4,3.8-0.5,5.8,0c0.1,0,0.3,0.1,0.4,0.1c0.1,0,0.1-0.1,0.2-0.1c-0.6-0.7-1.7-0.5-2.4-1.1c3.6-1.7,9-0.7,10.7,2.4
		c0.4,0.7,0.8,1.4,1.7,1.5c0.3,0,0.7,0.1,0.8-0.3c0.1-0.4-0.1-0.6-0.4-0.8c-0.9-0.6-1.7-1.3-2.6-1.9c-0.5-0.4-0.4-0.7,0.2-0.8
		c4.4-0.8,8.7-1.1,12.4,2.3c0.8,0.7,1.3,1.6,1.5,2.6c0.4,1.7,1.1,3.3,3.1,3.8c2.2,0.5,4-0.2,5.5-1.8c0.6-0.7,0.6-1.3,0-2
		c-0.8-0.8-1.5-1.7-1.6-2.8C56.6,28.7,56.6,28.1,56.9,27.5z"/>
	<path d="M159.4,26.4c1.1,0.1,1.2,0.2,0.8,1.1c-2,4.6-5.8,6.9-10.3,8.5c1.5-1.2,2.8-2.4,3.8-4c1.5-2.5,1.7-5.1,0.9-7.8
		c-0.9-3.1-3.3-5.1-5.3-7.4c-0.9-1-1.6-2.1-1.4-3.6c0.1-0.5,0.2-0.7,0.6-0.4c1.8,1.5,4,1.9,6.1,2.8c1,0.4,1.9,0.8,2.6,1.7
		c0.9,1.1,1,2.4,0,3.4c-0.3,0.3-0.6,0.5-0.4,1c0.1,0.2,0.3,0.2,0.4,0.2c0.5-0.1,0.5-0.5,0.6-0.9c0.2-0.7,1.9-1.9,2.6-1.8
		c0.5,0.1,0.7,0.4,0.9,0.8c0.8,1.8,0.3,4-1.2,5.3C159.7,25.7,159.4,25.9,159.4,26.4z"/>
	<path d="M76.7,13.7c-0.2,1.3-0.9,2.5-1.9,3.5c-1.6,1.6-3.2,3.1-4.2,5.2c-1,2.1-1.5,4.3-1,6.7c0.5,2.4,1.9,4,3.5,5.6
		c0.3,0.3,1.1,0.7,0.9,1c-0.3,0.4-0.9-0.2-1.4-0.4c-2.7-1.2-5.1-2.8-6.9-5.1c-0.8-1-1.3-2.1-1.7-3.3c-0.1-0.4,0-0.5,0.4-0.4
		c0.2,0,0.5,0.3,0.6-0.1c0.1-0.3-0.2-0.4-0.4-0.6c-1.2-1-2-2.1-2-3.7c0-0.9,0.5-1.6,0.8-2.3c0.1-0.3,0.4-0.5,0.7-0.3
		c1,0.4,2.1,0.6,2.4,1.9c0.1,0.3,0.2,0.5,0.4,0.7c0.2,0.1,0.5,0.1,0.7-0.1c0.2-0.2,0.1-0.5,0-0.7c0,0,0-0.1-0.1-0.1
		c-2.4-1.8-1-3.8,1-4.9c1.5-0.8,3-1.3,4.6-1.9c0.9-0.4,1.8-0.8,2.6-1.3c0.2-0.1,0.3-0.5,0.6-0.3C76.6,12.9,76.7,13.2,76.7,13.7z"/>
	<path d="M25.1,29.7c2.1-0.5,4,0.1,5.8,0.8c2.7,1.2,4.9,3,7.3,4.6c4.9,3.3,10.3,5,16.3,4c0.5-0.1,1.1-0.4,1.8-0.3
		c-1,0.9-2.1,1.5-3.2,1.8c-3.8,1.1-7.5,0.8-11.2-0.4c-1.4-0.5-2.8-0.8-4.3-0.7c-1.2,0.1-2.3,0.5-3.2,1.4c-0.3,0.3-0.5,0.7-1,0.4
		c-0.4-0.2-0.4-0.7-0.3-1.1c0.4-1.6,0.5-2.5,2.4-3c0.3-0.1,0.9,0,0.7-0.5c-0.1-0.3-0.6-0.2-0.9-0.1c-1.5,0.5-2.6,0-3.8-0.9
		c-1.9-1.5-3.4-1.6-4.9-0.5c-1.2,0.9-1.5,2.5-0.6,3.3c0.3,0.2,0.4,0.4,0.6-0.1c0.1-0.2,0.2-0.4,0.4-0.5c0.5-0.3,1.1-0.3,1.6,0
		c0.4,0.2,0.5,0.7,0.3,1c-0.3,0.6-0.9,0.7-1.5,0.7c-1.3-0.1-2.3-0.9-2.8-2c-0.4-0.9,0.1-2.3,1-3.2c1.1-1,2.4-1.5,3.8-1.4
		c0.1,0,0.3,0,0.4,0c0.4,0,1.2,0.2,1.2-0.3c0-0.6-0.7-0.3-1.1-0.3c-1.7,0.1-3.1-0.3-4-1.9C26,30.2,25.5,30.1,25.1,29.7z"/>
	<path d="M199.2,29.7c-0.6,0.3-1,0.7-1.2,1.1c-0.8,1.5-2.2,1.8-3.7,1.7c-0.2,0-0.4,0-0.6,0c-0.2,0-0.6-0.1-0.6,0.3
		c0,0.4,0.4,0.4,0.6,0.4c1.3,0,2.5,0,3.7,0.6c1,0.6,1.9,1.3,2.2,2.5c0.4,1.7-1,3.5-2.8,3.5c-0.6,0-1.2-0.2-1.5-0.8
		c-0.2-0.5,0.2-0.8,0.6-1c0.6-0.3,1.4-0.3,1.8,0.3c0.7,1,0.9,0.3,1.1-0.2c0.3-0.8,0.2-1.6-0.4-2.2c-0.8-0.8-1.6-1.5-2.9-1.3
		c-1.1,0.2-2,0.7-2.9,1.4c-1,0.9-2.1,1-3.3,0.7c-0.4-0.1-0.7-0.3-1.1,0.1c0.3,0.5,0.7,0.5,1.1,0.6c1.5,0.5,2.4,2.1,2,3.7
		c-0.2,0.6-0.4,0.6-0.8,0.2c-1.8-2.1-4.2-2.1-6.5-1.4c-3.4,1.1-6.9,1.8-10.5,1.2c-2-0.3-3.8-1-5.4-2.2c0.1-0.3,0.4-0.2,0.5-0.1
		c5.5,1.5,10.6,0.2,15.6-2.3c2.9-1.5,5.2-3.8,8.2-5.3c1.5-0.8,3.1-1.4,4.9-1.6C197.8,29.4,198.4,29.4,199.2,29.7z"/>
	<path d="M114.5,9.4c-0.1,1.5-0.9,2.6-1.8,3.8c1.4,0,2.1-0.6,2.5-1.9c0.4-1.3,1-2.5,2.1-3.3c1.7-1.3,4.8-1,6.5,0.5
		c-0.2,0.2-0.5,0.2-0.7,0.2c-2.2,0-3.8,1.2-4.9,2.8c-1.4,2.1-3.2,3-5.6,2.7c-0.5-0.1-1,0-1.5,0c-1.7,0-3-0.7-4-2.1
		c-0.9-1.3-2-2.5-3.6-3.1c-0.8-0.3-1.7-0.2-2.6-0.4c1.8-2,5.8-1.8,7.3,0.2c0.8,1,0.9,2.2,1.6,3.3c0.4,0.7,1,1.1,1.9,1.2
		c-0.5-0.9-1-1.7-1.4-2.5c-0.8-1.6-0.8-4.9,1-6.6c0.9-0.8,1.4-0.7,2.1,0.2c0.6,0.8,1.1,1.7,1.2,2.7C114.8,7.8,114.8,8.6,114.5,9.4z"
		/>
	<path d="M104,43.5c-0.6,0-1,0-1.3,0c-24.9,0-49.7,0-74.6,0c-0.5,0-1.4,0.4-1.4-0.5c0-0.8,0.9-0.5,1.4-0.5c24.3,0,48.6,0,72.9,0
		C101.9,42.4,102.8,42.7,104,43.5z"/>
	<path d="M120.6,43.4c1-0.8,1.8-1,2.8-1c24.4,0,48.8,0,73.2,0c0.3,0,0.6,0,0.9,0c0.3,0,0.4,0.3,0.3,0.6c0,0.3-0.2,0.4-0.4,0.4
		c-0.3,0-0.5,0-0.8,0c-24.9,0-49.9,0-74.8,0C121.5,43.5,121.1,43.4,120.6,43.4z"/>
	<path d="M112.2,14.8c1.3,0,2.2,0.8,2.2,1.9c0,1.1-1,1.9-2.2,1.9c-1.3,0-2.4-0.9-2.3-2C109.9,15.6,110.9,14.8,112.2,14.8z"/>
	<path d="M66.1,35.1c1.4,0.1,2.6,1.1,2.8,2.2c0.2,1.3-0.3,2.3-1.6,2.9c-1.1,0.5-2.3,0.7-3.6,0.4c-0.6-0.2-1.3-0.5-1.1-1.3
		c0.1-0.7,0.7-0.9,1.3-0.9c0.7,0,1.4,0.3,1.3,1.2c-0.1,0.7,0.3,0.7,0.7,0.5c0.9-0.3,1.6-0.7,1.9-1.6c0.3-0.9,0.2-1.8-0.6-2.6
		C66.9,35.7,66.5,35.5,66.1,35.1z"/>
	<path d="M155.6,37c0.3-1.2,1.2-1.6,2.6-2c-0.8,0.7-1.4,1.2-1.7,2.1c-0.5,1.4,0.7,3.2,2.2,3.2c0.4,0,0.4-0.2,0.4-0.5
		c-0.1-0.8,0.4-1.2,1.1-1.2c0.6-0.1,1.2,0.1,1.3,0.8c0.1,0.8-0.3,1.2-1,1.4c-2,0.6-4.3-0.3-5-1.9C155.4,38.2,155.3,37.6,155.6,37z"
		/>
	<path d="M216.3,42.8c-0.6,0.5-1.3,0.4-1.9,0.4c-3.4,0.1-6.7,0.2-10.1,0.2c-0.4,0-1,0.2-0.9-0.5c0-0.7,0.6-0.4,1-0.4
		c3.7,0.1,7.3,0.2,11,0.3C215.7,42.8,216,42.8,216.3,42.8z"/>
	<path d="M7.9,42.8c3.8-0.1,7.4-0.2,11-0.3c0.5,0,0.9,0,1.4-0.1c0.3,0,0.6,0.1,0.6,0.5c0,0.4-0.2,0.5-0.6,0.5c-1,0-1.9,0-2.9,0
		c-2.8-0.1-5.7-0.1-8.5-0.2C8.6,43.2,8.3,43.2,7.9,42.8z"/>
	<path d="M88.6,32c0.1-0.2,0.1-0.3,0.2-0.5c0.4,1.5-0.4,2.6-1.9,2.5c-0.6-0.1-1-0.3-1-1c0-0.7,0.4-0.9,1.1-1c0.4,0,0.8,0,1.1,0.3
		C88.4,32.5,88.6,32.3,88.6,32z"/>
	<path d="M114.5,9.4c0-0.8,0-1.6,0-2.4C115.1,7.8,115.1,8.6,114.5,9.4z"/>
	<path d="M70.5,25.1c0,0.7,0,1.5,0,2.2C69.7,26.6,69.9,25.9,70.5,25.1z"/>
	<path d="M155.6,37c0,0.6,0,1.2,0,1.8C155,38.2,155,37.6,155.6,37z"/>
	<path d="M100.1,29.9c0-0.6,0-1.2,0-1.8C100.7,28.7,100.6,29.3,100.1,29.9z"/>
	<path d="M56.9,27.5c0,0.6,0,1.2,0,1.8C56.3,28.7,56.3,28.1,56.9,27.5z"/>
	<path d="M128.7,30.5c-0.1,0.6-0.1,1.5-0.6,2.3c-0.3,0.6-0.6,0.4-0.9,0.1c-0.9-1-1.5-2.2-1.9-3.4c-0.3-0.9,0.2-1.6,0.9-2
		c0.7-0.4,1.3,0,1.8,0.6C128.6,28.8,128.7,29.4,128.7,30.5z"/>
	<path d="M99,29.1c0,1.8-1.2,2.9-2.2,4.1c-0.2,0.3-0.5,0.1-0.5-0.2c-0.4-1.5-1.2-3-0.2-4.6c0.4-0.7,0.9-1.2,1.8-1
		C98.7,27.5,99,28.1,99,29.1z"/>
	<path d="M114.3,25.9c-0.7,0.5-1.5,0.7-1.9,1.5c-0.2,0.4-0.5,0-0.7-0.2c-0.5-0.6-1.1-1-1.8-1.3C111.9,24.6,112.5,24.6,114.3,25.9z"
		/>
	<path d="M164,29.4c0.1-0.5,0-0.9,0.1-1.2c0.2-0.7,0.6-1.2,1.4-1.1c0.8,0.1,0.9,0.8,0.9,1.4c-0.1,1.1-0.5,2.1-1.3,2.8
		c-0.4,0.4-0.7,0.3-0.8-0.3C164.2,30.5,164.1,29.9,164,29.4z"/>
	<path d="M60.2,30.1c-0.1,0.5,0,1.3-0.4,1.4c-0.7,0.2-0.7-0.7-1.1-1.1c-0.3-0.5-0.7-0.9-0.7-1.5c0-0.7-0.2-1.5,0.8-1.7
		c1-0.2,1.2,0.5,1.4,1.2C60.4,28.9,60.4,29.5,60.2,30.1z"/>
	<path d="M60.2,30.1c0-0.6,0-1.2,0-1.7C60.8,28.9,60.8,29.5,60.2,30.1z"/>
</g>
<g id="A2LGyX.tif_1_">
	<g>
		<path d="M120,66.1c0,2,0.8,2.9,2.8,3.3c0.6,0.1,1.1-0.2,1.6-0.4c1.3-0.6,2.6-1.1,4-1.2c0.9-0.1,1.8,0,2.5,0.6
			c0.7,0.6,0.7,1.2,0.1,1.8c-1,0.9-2.3,0.9-3.5,0.9c-1,0-2-0.2-3-0.4c-0.7-0.2-1.3-0.1-1.8,0.3c-1.3,0.9-2.5,1.9-3.5,3.2
			c-0.6,0.8-1.4,0.7-2.1,0.5c-0.7-0.2-0.1-0.7,0.1-0.9c1.2-1.3,2.5-2.3,4-3.2c0.2-0.1,0.4-0.3,0.7-0.5c-1.8-1-4.1-1.5-4.4-4.1
			C118.3,66.1,119.1,66.1,120,66.1z"/>
		<path d="M106.9,66.1c0.1,1.6-1,2.2-2.1,2.9c-0.7,0.4-1.5,0.7-2.2,1.1c1.1,0.7,2.1,1.4,3.2,2.2c0.6,0.5,1.2,1,1.7,1.6
			c0.4,0.5,0.3,0.8-0.4,0.9c-0.7,0-1.4,0-1.9-0.7c-1-1.3-2.4-2.2-3.7-3.2c-0.4-0.3-0.8-0.2-1.3-0.1c-1.5,0.3-3,0.6-4.5,0.3
			c-0.3,0-0.6-0.1-0.9-0.2c-0.8-0.2-1.7-0.6-1.6-1.6c0.1-0.9,1-1.2,1.8-1.4c1.8-0.3,3.3,0.3,4.9,1c1.6,0.7,3,0.5,4.3-0.7
			c0.7-0.6,0.3-1.4,0.3-2.1C105.3,66.1,106.1,66.1,106.9,66.1z"/>
		<path d="M113.5,81.8c0.1-1.3,0.2-2.6,0.8-3.9c0.9-1.7,0.8-1.7,2.9-1.4c-1.7,3.9-2.7,7.8-0.5,11.9c0.1-3.5,1.9-6.1,4.3-8.3
			c2.7-2.4,6-3.8,9.6-4.1c4-0.3,7.8,0.6,11.2,2.9c1.8,1.2,3.8,2.2,6.1,2.1c1.5-0.1,3-0.5,4.1-1.7c0.6-0.6,0.6-1.2-0.1-1.7
			c0,0-0.1,0-0.1-0.1c-0.3-0.4-0.9-0.6-0.7-1.3c0.1-0.3,0.5-0.4,0.9-0.4c0.6,0.1,1.1,0.3,1.3,1c0.4,1.4-0.1,2.7-1.2,3.6
			c-2.6,2.2-5.6,2.7-8.8,2.4c-2.1-0.2-4-0.8-5.6-2.1c-0.4-0.3-0.8-0.4-0.7,0.3c0,1-0.6,1.8-0.3,2.8c0.1,0.4-0.3,0.3-0.5,0.2
			c-1.5-1-3.2-1-4.8-1.3c-1.2-0.2-2.2-0.8-2.7-2c-0.1-0.4-0.4-0.6-0.8-0.5c-0.2,0-0.3,0.1-0.3,0.3c0,0.4,0.2,0.6,0.5,0.7
			c0.8,0.4,1.3,1.2,1.8,2c0.6,1.1,0.1,2.7-1.2,3.7c-0.5,0.3-0.9,0.6-1.5,0.6c-0.2,0.1-0.5,0.3-0.6-0.2c0.8-0.2,1.5-0.5,2-1.2
			c0.7-1.1,0.2-2.6-1.1-3.2c-3-1.4-6.9,0.3-8.3,3.3c-1.2,2.6-0.2,5.3,1.8,6.7c0.5,0.3,0.9,0.5,1.5,0.3c1.9-0.4,3.8-0.8,5.7-0.5
			c0.8,0.1,1.5,0.3,2.1,0.7c0.5,0.3,0.8,0.7,0.8,1.3c0,0.6-0.3,1-0.9,1.3c-1.2,0.6-2.4,0.5-3.6,0.3c-1.5-0.3-2.9-0.9-4.3-1.6
			c-0.5-0.3-1-0.5-1.6-0.2c-2.6,1-5.1,2.2-7.2,4.1c-0.7,0.6-0.6,1.1-0.2,1.7c0.4,0.5,0.5,1,0.2,1.5c-0.3,0.6-1,0.6-1.6,0.5
			c-0.9-0.2-1.2-0.9-0.7-1.7c0.8-1.3,0.8-1.3-0.4-2.3c-2-1.7-4.3-2.8-6.7-3.7c-0.7-0.2-1.2,0-1.8,0.2c-1.7,0.8-3.5,1.6-5.5,1.7
			c-0.8,0-1.7-0.1-2.4-0.5c-1.1-0.6-1.1-1.9-0.1-2.6c1-0.6,2.1-0.8,3.3-0.8c1.3,0,2.7,0,3.9,0.4c1.9,0.6,2.6-0.1,3.6-1.5
			c1.9-2.6,1.1-5.5-1-7.4c-1.6-1.5-3.7-2.2-5.9-1.6c-1.6,0.4-2.4,1.1-2.4,2.3c0,1.1,0.6,1.8,2.2,2.3c0,0.4-0.2,0.3-0.4,0.2
			c-1.5-0.2-2.5-1.2-3-2.5c-0.4-1,0.5-2.7,1.7-3.6c0.3-0.2,0.8-0.3,0.8-0.8c0-0.2-0.2-0.3-0.5-0.3c-0.6,0-0.7,0.4-0.9,0.8
			c-0.5,1-1.4,1.5-2.5,1.6c-1.8,0.3-3.6,0.4-5.1,1.4c-0.1,0-0.2,0-0.4,0c0.7-1.2-0.3-2.2-0.4-3.3c0-0.4-0.5,0-0.7,0.1
			c-3.1,2-6.5,2.5-10,1.8c-2-0.4-3.8-1.3-5.1-3.1c-0.6-0.8-0.6-1.7-0.4-2.7c0.2-0.6,0.7-0.9,1.3-1c0.3,0,0.7,0,0.9,0.4
			c0.1,0.4,0,0.6-0.3,0.9c-1.4,1.4-1.2,2.2,0.6,3.1c3,1.5,5.7,0.7,8.3-1c3.5-2.3,7.2-3.5,11.4-3.3c5.6,0.4,10,2.9,13,7.6
			c0.7,1.1,1.2,2.5,1.1,3.9c0,0.3-0.1,0.7,0.1,1c0.3-0.1,0.4-0.2,0.5-0.5c0.9-2.4,1.3-4.8,0.5-7.4c-0.3-1-0.5-2.1-1-3.1
			c-0.1-0.3-0.7-0.9,0.1-1.1c0.7-0.2,1.5-0.7,2,0.4c0.6,1.3,1.2,2.6,1.2,4.1c0.4,1,0.1,2.1,0.2,3.1c-0.4,3.2-2,5.8-4.4,7.9
			c-0.5,0.4-1,0.9-1.6,1.2c-0.8,0.5-0.5,0.7,0.1,0.9c2.2,0.9,4.1,2.1,5.9,3.7c1.2,1,1.2,1.1,2.3,0.1c1.8-1.6,3.8-2.8,6-3.8
			c0.2-0.1,0.6-0.1,0.6-0.4c0-0.3-0.4-0.4-0.6-0.5c-3.4-2.4-5.8-5.3-5.9-9.7C113.3,82.9,113.3,82.4,113.5,81.8z"/>
		<path d="M148.5,80.1c-1.6,0.3-3.1-0.1-4.6-0.8c-2.2-1.2-4.3-2.7-6.7-3.4c-5.2-1.5-10.2-1.4-14.9,1.6c-0.2,0.1-0.4,0.3-0.8,0.2
			c0.3-0.9,1.1-1.5,1.7-2c2.5-2.2,5.5-3.7,8.9-4c0.3,0,0.9-0.4,0.6,0.5c-0.2,0.4,0.4,0.4,0.7,0.3c0.6-0.1,1.1-0.4,1.6-0.7
			c1.8-1.2,3.7-1.1,5.7-0.4c0.6,0.2,0.8,0.5,0.3,1c-0.6,0.6-1.2,1.1-2.1,1.1c-0.3,0-0.6,0-0.8,0.2c-0.1,0.1,0,0.3,0.1,0.4
			c0.3,0.2,0.6,0.1,0.9-0.1c1-0.5,2-0.8,3.2-0.5c1.5,0.3,2.5,1.2,3.3,2.5C146.4,77.4,147.1,79,148.5,80.1z"/>
		<path d="M102.9,77.9c-0.8-0.5-1.6-1-2.5-1.4C94.6,74,89,74.6,83.5,77.6c-2,1.1-3.7,2.5-6.1,2.7c-0.5,0-1,0.1-1.6-0.2
			c2.2-1.3,2.5-3.9,4.4-5.5c1.5-1.3,3.2-1.5,4.9-0.7c0.1,0,0.1,0.1,0.2,0.1c0.3,0.2,0.7,0.3,1.1,0.1c0.1,0,0.2-0.2,0.1-0.3
			c-0.2-0.5-0.6-0.3-1-0.4c-0.2,0-0.3-0.1-0.5-0.1c-0.7-0.3-1.5-0.8-1.6-1.5c-0.1-0.8,0.9-0.7,1.5-0.9c1.7-0.4,3.3-0.2,4.7,0.8
			c0.5,0.3,0.9,0.6,1.5,0.7c0.4,0,0.8,0.1,0.6-0.6c-0.1-0.3,0-0.3,0.6-0.3c2.7,0.3,5.2,1.3,7.4,2.9c1,0.8,2,1.5,2.8,2.5
			C102.8,77.3,103,77.4,102.9,77.9z"/>
		<path d="M165.2,70.1c-10.2,0-20.4,0-30.7,0c-0.3,0-0.6,0-0.8,0c-0.4-0.1-1.1,0.3-1.1-0.5c0-0.7,0.7-0.5,1.1-0.5
			c21.1,0,42.1,0,63.2,0c0.3,0,0.9-0.4,0.9,0.4c0,0.8-0.6,0.5-0.9,0.5C186.3,70.1,175.7,70.1,165.2,70.1z"/>
		<path d="M59.3,70.1c-10.3,0-20.5,0-30.8,0c-0.3,0-0.6,0-0.9,0c-0.4,0-0.8,0.1-0.8-0.5c0-0.6,0.5-0.4,0.9-0.5c0.2,0,0.4,0,0.6,0
			c20.8,0,41.5,0,62.3,0c0.5,0,1.4-0.4,1.4,0.5c0,0.8-0.9,0.4-1.4,0.4C80.1,70.1,69.7,70.1,59.3,70.1z"/>
		<path d="M116.6,93.8c0,0.3-0.3,0.3-0.4,0.4c-1.2,0.7-2.4,1.4-3.5,2.4c-0.3,0.3-0.6,0.1-0.8-0.1c-1-0.9-2.2-1.6-3.4-2.3
			c-0.5-0.2-0.5-0.5-0.1-0.8c1.8-1.6,2.9-3.7,3.5-6c0.1-0.2,0-0.7,0.4-0.7c0.4,0,0.5,0.5,0.6,0.8c0.4,1.4,1,2.7,1.8,4
			c0.4,0.8,1.1,1.3,1.7,1.9C116.3,93.6,116.4,93.7,116.6,93.8z"/>
		<path d="M103.6,74c0.9,0.6,1.8,1.2,3,1.2c1.1,0.1,2-0.3,2.9-1c0.2-0.2,0.3-0.4,0.3-0.6c-0.1-0.4-0.4-0.2-0.6-0.2
			c-0.6,0-1.2,0-1.5-0.7c-0.2-0.4,0-0.7,0.4-0.8c0.7-0.4,1.3-0.4,1.9,0.2c0.7,0.7,0.7,1.4,0,2.5c-0.8,1.2-2.1,1.4-3.4,1.3
			C105.3,75.8,104.2,75.3,103.6,74z"/>
		<path d="M120.7,74.4c-0.5,1-1.5,1.4-2.5,1.5c-1.9,0.3-3.5-0.5-4.1-2.1c-0.3-0.8,0-1.3,0.5-1.7c0.5-0.5,1.2-0.5,1.8-0.1
			c0.4,0.2,0.5,0.5,0.4,0.9c-0.2,0.5-0.6,0.6-1.1,0.7c-0.4,0.1-0.9-0.4-1.1,0.1c-0.1,0.5,0.5,0.8,0.9,1.1c1.5,0.9,2.9,0.6,4.3-0.1
			C120.2,74.5,120.3,74.2,120.7,74.4z"/>
		<path d="M218,69.7c-4.6,0.1-9.2,0.2-13.7,0.3c-0.3,0-0.7,0.1-0.7-0.4c0-0.5,0.4-0.5,0.7-0.5c4.6,0.1,9.2,0.2,13.7,0.4
			C218,69.6,218,69.7,218,69.7z"/>
		<path d="M7.8,69.6c1.5-0.2,3-0.1,4.4-0.2c2.6-0.1,5.2-0.1,7.8-0.2c0.3,0,0.8-0.1,0.8,0.4c0,0.6-0.4,0.4-0.7,0.4
			c-4.1-0.1-8.2-0.2-12.3-0.3C7.7,69.7,7.7,69.6,7.8,69.6z"/>
		<path d="M200.7,70.9c-1,0-1.7-0.6-1.7-1.3c0-0.7,0.8-1.3,1.7-1.3c0.9,0,1.7,0.6,1.7,1.3C202.5,70.3,201.7,70.9,200.7,70.9z"/>
		<path d="M23.9,68.3c1,0,1.7,0.6,1.6,1.3c0,0.7-0.8,1.2-1.7,1.2c-1,0-1.6-0.5-1.6-1.3C22.2,68.8,22.8,68.3,23.9,68.3z"/>
		<path d="M126.4,87.2c0.2,0.1,0.4,0.1,0.6,0.2c-0.8,0.4-1.6,0.2-2.3-0.2c-0.4-0.2-0.8-0.6-0.5-1.2c0.3-0.6,0.9-0.6,1.4-0.5
			c0.6,0.2,0.7,0.7,0.5,1.1C125.9,87.2,126,87.2,126.4,87.2z"/>
		<path d="M97.5,87.4c0.1-0.1,0.3-0.1,0.4-0.2c0.2-0.1,0.7,0.2,0.4-0.4c-0.3-0.6-0.1-1,0.5-1.2c0.6-0.2,1.2,0,1.5,0.5
			c0.2,0.2,0,0.5-0.2,0.7C99.4,87.6,98.5,87.7,97.5,87.4z"/>
		<path d="M111.1,84.1c-0.3-1-0.1-2.1-0.2-3.1C111.6,82,111.3,83,111.1,84.1z"/>
		<path d="M7.8,69.6c0,0.1,0,0.1,0,0.2c-1.2,0-2.3,0-3.5,0c0-0.1,0-0.1,0-0.2C5.5,69.6,6.7,69.6,7.8,69.6z"/>
		<path d="M113.5,81.8c0,0.6,0,1.1,0,1.7C113,82.9,113,82.4,113.5,81.8z"/>
		<path d="M124.6,69.9c1.4-0.8,2.7-1.2,4.1-1.2c0.5,0,1.3-0.1,1.3,0.6c0.1,0.8-0.7,0.8-1.2,0.8C127.6,70.3,126.2,70.2,124.6,69.9z"
			/>
		<path d="M99.6,69.8c-1.5,0.4-3,0.5-4.5,0.2c-0.4-0.1-0.8-0.2-0.8-0.7c0-0.6,0.5-0.6,0.9-0.7C96.8,68.5,98.2,69,99.6,69.8z"/>
		<path d="M96.6,95.7c-0.8,0-1.8-0.1-1.9-0.9c-0.1-0.8,0.9-1,1.7-1.2c1.5-0.4,3.1-0.1,4.6,0.2c0.2,0,0.4,0,0.4,0.2
			c0.1,0.3-0.2,0.3-0.4,0.4C99.6,95.1,98.1,95.6,96.6,95.7z"/>
		<path d="M125.9,93.5c1-0.1,2.1,0,3.1,0.4c0.4,0.1,0.9,0.4,0.9,0.9c0,0.5-0.5,0.8-1,0.9c-1.2,0.3-2.3,0-3.3-0.4
			c-0.7-0.2-1.4-0.5-2.1-0.8c-0.1,0-0.3-0.2-0.3-0.3c0-0.2,0.2-0.3,0.3-0.3C124.3,93.7,125.1,93.6,125.9,93.5z"/>
	</g>
</g>
<g>
	<text transform="matrix(1.0629 0 0 1 59.2922 65.0258)" class="st0 st1">JACK</text>
	<text transform="matrix(1.0629 0 0 1 129.3622 65.0256)" class="st0 st1">Peggy</text>
	<text transform="matrix(1.0629 0 0 1 106.6496 61.9394)" class="st2 st1">&amp;</text>
</g>
</svg>
