<svg id="圖層_1" data-name="圖層 1" xmlns="http://www.w3.org/2000/svg" xmlns:xlink="http://www.w3.org/1999/xlink" viewBox="0 0 104.6 115.22"><defs><style>.cls-1{fill:url(#金色);}</style><linearGradient id="金色" x1="128.67" y1="330.09" x2="229.24" y2="330.09" gradientUnits="userSpaceOnUse"><stop offset="0" stop-color="#ffeea7"/><stop offset="0.5" stop-color="#fdd000"/><stop offset="1" stop-color="#f8b300"/></linearGradient></defs><title>love</title><path class="cls-1" d="M151,369.78a151.07,151.07,0,0,1-15.42-42.32,144.34,144.34,0,0,1-2.73-22.89c-.3-7.34-1.2-17.23,4.28-23,12.56-13.27,24.24,16.08,26.72,24.84a72,72,0,0,1-.66,41.33l5.89.8a69.81,69.81,0,0,1,14.15-41.08c8.84-11.62,26.24-25.19,37.66-8.55,7.71,11.21,4.57,26.62-2.92,37-8.75,12.13-22.63,19.82-35.69,26.47a246.79,246.79,0,0,1-52.36,19.45c-3.75.94-2.16,6.73,1.59,5.79a253.7,253.7,0,0,0,55.43-20.9c14.91-7.74,30.82-17.22,39.16-32.43,6.8-12.41,7.58-29.24-1.7-40.65-4.76-5.85-11.94-9.58-19.59-8.67-8,1-14.86,6.35-20.34,11.92A75.72,75.72,0,0,0,163,348.51c-.06,3.45,4.89,4,5.89.79a78,78,0,0,0,2-39c-2.37-11.64-7.66-25.5-16.72-33.64S133,273,128.82,283.76c-2.56,6.53-2.3,13.93-2,20.81a154.85,154.85,0,0,0,19,68.24c1.85,3.39,7,.37,5.19-3Z" transform="translate(-126.63 -272.48)"/></svg>