<svg id="圖層_1" data-name="圖層 1" xmlns="http://www.w3.org/2000/svg" xmlns:xlink="http://www.w3.org/1999/xlink" viewBox="0 0 223 154.94"><defs><style>.cls-1{fill:url(#大地色調_8);}.cls-2{fill:url(#大地色調_8-2);}.cls-3{fill:url(#大地色調_8-3);}.cls-4{fill:url(#大地色調_8-4);}.cls-5{fill:url(#大地色調_8-5);}.cls-6{fill:url(#大地色調_8-6);}.cls-7{fill:url(#大地色調_8-7);}.cls-8{fill:url(#大地色調_8-8);}.cls-9{fill:url(#大地色調_8-9);}.cls-10{fill:url(#大地色調_8-10);}.cls-11{fill:url(#大地色調_8-11);}.cls-12{fill:url(#大地色調_8-12);}.cls-13{fill:url(#大地色調_8-13);}.cls-14{fill:url(#大地色調_8-14);}.cls-15{fill:url(#大地色調_8-15);}.cls-16{fill:url(#大地色調_8-16);}.cls-17{fill:url(#大地色調_8-17);}.cls-18{fill:url(#大地色調_8-18);}.cls-19{fill:url(#大地色調_8-19);}.cls-20{fill:url(#大地色調_8-20);}.cls-21{fill:url(#大地色調_8-21);}.cls-22{fill:url(#大地色調_8-22);}.cls-23{fill:url(#大地色調_8-23);}.cls-24{fill:url(#大地色調_8-24);}.cls-25{fill:url(#大地色調_8-25);}.cls-26{fill:url(#大地色調_8-26);}.cls-27{fill:url(#大地色調_8-27);}.cls-28{fill:url(#大地色調_8-28);}.cls-29{fill:url(#大地色調_8-29);}.cls-30{fill:url(#大地色調_8-30);}.cls-31{fill:url(#大地色調_8-31);}.cls-32{fill:url(#大地色調_8-32);}.cls-33{fill:url(#大地色調_8-33);}.cls-34{fill:url(#大地色調_8-34);}.cls-35{fill:url(#大地色調_8-35);}.cls-36{fill:url(#大地色調_8-36);}.cls-37{fill:url(#大地色調_8-37);}.cls-38{fill:url(#大地色調_8-38);}.cls-39{fill:url(#大地色調_8-39);}.cls-40{fill:url(#大地色調_8-40);}.cls-41{fill:url(#大地色調_8-41);}.cls-42{fill:url(#大地色調_8-42);}.cls-43{fill:url(#大地色調_8-43);}.cls-44{fill:url(#大地色調_8-44);}.cls-45{fill:url(#大地色調_8-45);}.cls-46{fill:url(#大地色調_8-46);}.cls-47{fill:url(#大地色調_8-47);}.cls-48{fill:url(#大地色調_8-48);}.cls-49{fill:url(#大地色調_8-49);}</style><linearGradient id="大地色調_8" x1="131.33" y1="62.91" x2="175.93" y2="62.91" gradientUnits="userSpaceOnUse"><stop offset="0" stop-color="#bca479"/><stop offset="0.5" stop-color="#a07f46"/><stop offset="1" stop-color="#8b6625"/></linearGradient><linearGradient id="大地色調_8-2" x1="72.36" y1="167.38" x2="234.85" y2="167.38" xlink:href="#大地色調_8"/><linearGradient id="大地色調_8-3" x1="41.87" y1="90.34" x2="61.96" y2="90.34" xlink:href="#大地色調_8"/><linearGradient id="大地色調_8-4" x1="74.3" y1="151.27" x2="233.18" y2="151.27" xlink:href="#大地色調_8"/><linearGradient id="大地色調_8-5" x1="157.76" y1="81.48" x2="196.41" y2="81.48" xlink:href="#大地色調_8"/><linearGradient id="大地色調_8-6" x1="110.31" y1="81.49" x2="149.75" y2="81.49" xlink:href="#大地色調_8"/><linearGradient id="大地色調_8-7" x1="72.42" y1="135.29" x2="234.71" y2="135.29" xlink:href="#大地色調_8"/><linearGradient id="大地色調_8-8" x1="157.14" y1="116.47" x2="216.43" y2="116.47" xlink:href="#大地色調_8"/><linearGradient id="大地色調_8-9" x1="90.54" y1="116.38" x2="149.24" y2="116.38" xlink:href="#大地色調_8"/><linearGradient id="大地色調_8-10" x1="62.07" y1="112.59" x2="107.53" y2="112.59" xlink:href="#大地色調_8"/><linearGradient id="大地色調_8-11" x1="199.27" y1="111.85" x2="244.48" y2="111.85" xlink:href="#大地色調_8"/><linearGradient id="大地色調_8-12" x1="245.1" y1="90.2" x2="264.87" y2="90.2" xlink:href="#大地色調_8"/><linearGradient id="大地色調_8-13" x1="147.64" y1="115.83" x2="159.52" y2="115.83" xlink:href="#大地色調_8"/><linearGradient id="大地色調_8-14" x1="197.37" y1="84.53" x2="211.38" y2="84.53" xlink:href="#大地色調_8"/><linearGradient id="大地色調_8-15" x1="95.8" y1="84.85" x2="109.76" y2="84.85" xlink:href="#大地色調_8"/><linearGradient id="大地色調_8-16" x1="231.27" y1="124.31" x2="244.55" y2="124.31" xlink:href="#大地色調_8"/><linearGradient id="大地色調_8-17" x1="62.62" y1="124.23" x2="75.87" y2="124.23" xlink:href="#大地色調_8"/><linearGradient id="大地色調_8-18" x1="58.61" y1="96.84" x2="70.17" y2="96.84" xlink:href="#大地色調_8"/><linearGradient id="大地色調_8-19" x1="236.99" y1="96.73" x2="248.36" y2="96.73" xlink:href="#大地色調_8"/><linearGradient id="大地色調_8-20" x1="107.43" y1="90.89" x2="116.61" y2="90.89" xlink:href="#大地色調_8"/><linearGradient id="大地色調_8-21" x1="190.71" y1="90.96" x2="199.29" y2="90.96" xlink:href="#大地色調_8"/><linearGradient id="大地色調_8-22" x1="94.53" y1="96.18" x2="103.15" y2="96.18" xlink:href="#大地色調_8"/><linearGradient id="大地色調_8-23" x1="203.92" y1="96.24" x2="212.61" y2="96.24" xlink:href="#大地色調_8"/><linearGradient id="大地色調_8-24" x1="112.39" y1="123.51" x2="119.75" y2="123.51" xlink:href="#大地色調_8"/><linearGradient id="大地色調_8-25" x1="187.42" y1="123.55" x2="194.75" y2="123.55" xlink:href="#大地色調_8"/><linearGradient id="大地色調_8-26" x1="57.09" y1="107.85" x2="64.46" y2="107.85" xlink:href="#大地色調_8"/><linearGradient id="大地色調_8-27" x1="242.71" y1="107.73" x2="249.93" y2="107.73" xlink:href="#大地色調_8"/><linearGradient id="大地色調_8-28" x1="235.52" y1="117.16" x2="245.3" y2="117.16" xlink:href="#大地色調_8"/><linearGradient id="大地色調_8-29" x1="61.8" y1="117.54" x2="71.53" y2="117.54" xlink:href="#大地色調_8"/><linearGradient id="大地色調_8-30" x1="55.65" y1="102.06" x2="61.24" y2="102.06" xlink:href="#大地色調_8"/><linearGradient id="大地色調_8-31" x1="245.78" y1="101.68" x2="251.47" y2="101.68" xlink:href="#大地色調_8"/><linearGradient id="大地色調_8-32" x1="140.66" y1="165.9" x2="166.34" y2="165.9" xlink:href="#大地色調_8"/><linearGradient id="大地色調_8-33" x1="117.03" y1="149.28" x2="128.91" y2="149.28" xlink:href="#大地色調_8"/><linearGradient id="大地色調_8-34" x1="84.81" y1="152.65" x2="96.68" y2="152.65" xlink:href="#大地色調_8"/><linearGradient id="大地色調_8-35" x1="148.8" y1="148.17" x2="160.67" y2="148.17" xlink:href="#大地色調_8"/><linearGradient id="大地色調_8-36" x1="212.84" y1="152.47" x2="224.66" y2="152.47" xlink:href="#大地色調_8"/><linearGradient id="大地色調_8-37" x1="181.18" y1="149.29" x2="192.64" y2="149.29" xlink:href="#大地色調_8"/><linearGradient id="大地色調_8-38" x1="178.21" y1="149.31" x2="188.82" y2="149.31" xlink:href="#大地色調_8"/><linearGradient id="大地色調_8-39" x1="146.29" y1="148.27" x2="155.91" y2="148.27" xlink:href="#大地色調_8"/><linearGradient id="大地色調_8-40" x1="82.36" y1="152.61" x2="91.69" y2="152.61" xlink:href="#大地色調_8"/><linearGradient id="大地色調_8-41" x1="210.26" y1="151.14" x2="219.89" y2="151.14" xlink:href="#大地色調_8"/><linearGradient id="大地色調_8-42" x1="211.84" y1="152.94" x2="216.07" y2="152.94" xlink:href="#大地色調_8"/><linearGradient id="大地色調_8-43" x1="114.69" y1="152.11" x2="120.4" y2="152.11" xlink:href="#大地色調_8"/><linearGradient id="大地色調_8-44" x1="114.69" y1="146.4" x2="120.33" y2="146.4" xlink:href="#大地色調_8"/><linearGradient id="大地色調_8-45" x1="212.64" y1="158.61" x2="219.93" y2="158.61" xlink:href="#大地色調_8"/><linearGradient id="大地色調_8-46" x1="115.91" y1="149.25" x2="120.34" y2="149.25" xlink:href="#大地色調_8"/><linearGradient id="大地色調_8-47" x1="83.83" y1="152.37" x2="89.18" y2="152.37" xlink:href="#大地色調_8"/><linearGradient id="大地色調_8-48" x1="147.83" y1="148.19" x2="151.97" y2="148.19" xlink:href="#大地色調_8"/><linearGradient id="大地色調_8-49" x1="180.22" y1="149.61" x2="184.41" y2="149.61" xlink:href="#大地色調_8"/></defs><title>title</title><g id="l9XUIw.tif"><g id="_5THiPs.tif" data-name=" 5THiPs.tif"><path class="cls-1" d="M155,17c.18,1.45,1.28,2.27,2.11,3.27,6.18,7.32,6.83,14.2,2.08,22.49-.48.83-1,1.61-1.52,2.44s-1.53,1.59-.46,2.46,1.74,0,2.45-.72c3.31-3.32,7.2-3.35,11.35-2a6.73,6.73,0,0,1,4.32,4c1.39,3.43.49,4.83-3.14,5.05a15.13,15.13,0,0,0-13.2,8c-8.75,15.29-4,35,11.71,46.36-2.44.26-4.05-.79-5.52-1.62-4.33-2.46-8.13-5.54-10.33-10.2-.29-.62-.43-1.54-1.34-1.4s-.88,1-1.23,1.63c-3.36,6-8.45,9.82-15.17,11.94,0-1.48,1-1.49,1.58-1.89,8.65-5.76,12.83-14,13.39-24.22.4-7.13,0-14.15-3.79-20.56a15.34,15.34,0,0,0-13.56-8c-2.88-.08-3.92-1.44-3.11-4.32,1.44-5.09,9.31-7.39,14.23-4.16a14.24,14.24,0,0,1,1.94,1.62c.64.61,1.38,1.15,2.2.54,1-.72.17-1.48-.22-2.16A59.65,59.65,0,0,1,146.57,40c-2.93-6.8-2-13.09,2.77-18.81,1-1.27,2.52-2.27,2.77-4.1Z" transform="translate(-41.87 -17.04)"/><path class="cls-2" d="M141.5,166.27c-8.1.46-16.2.77-24.28,1.44-12.85,1-25.68,2.28-38.52,3.46-.79.07-1.72-.1-2.25.79h-3.6c-1.28-2.88,0-4,2.78-4.25,20.52-2,41-3.94,61.65-4.67,18.5-.65,36.94,0,55.37,1.12,13,.83,26,2.36,39,3.61,1.2.1,2.37.26,3,1.57s-.54,1.87-1.17,2.64h-3.6c-1.08-1.21-2.62-1.08-4-1.19-18.8-1.65-37.57-3.72-56.48-3.94-1.29,0-2.64.18-3.84-.54-6-1.06-11.95-.24-17.92-.41C145.61,165.79,143.49,165.3,141.5,166.27Z" transform="translate(-41.87 -17.04)"/><path class="cls-3" d="M55.64,105.55C50,97.37,45.38,88.7,43.05,78.94c-.19-.78-.32-1.66-1.18-2.1V74.68c6.14.77,9.87,5.54,8.92,11.52-.14.94-.67,2.1.28,2.6,1.17.63,1.57-.72,2.06-1.44a5.88,5.88,0,0,1,4.47-2.68c1.77-.18,3.39.18,4.18,2s-1.13,2.06-2,2.81c-3.71,3.18-3.45,7.06-2.08,11.16,1.25,1.07,2.16,2.35,1.16,4C58.15,105.75,57.09,106.55,55.64,105.55Z" transform="translate(-41.87 -17.04)"/><path class="cls-4" d="M159.34,137.31a609.14,609.14,0,0,1,65.29,4.23c2.7.32,6.2-.66,7.92,1.34s-.32,5-.57,7.6a40.25,40.25,0,0,0,.63,11.06c.65,3.74.38,4-3.28,3.55-31.7-3.42-63.53-5.67-95.49-4.38-18.92.75-37.79,2.37-56.6,4.54-2.6.3-3.33-.52-2.76-2.89a33.77,33.77,0,0,0,.11-16c-.72-3.13.11-4.32,3.3-4.54,10.62-.85,21.23-2,31.87-2.88A491.17,491.17,0,0,1,159.34,137.31Z" transform="translate(-41.87 -17.04)"/><path class="cls-5" d="M196.41,101c-6.4,5.63-17.41,6.19-25.89,1.39C157.6,95,153.54,74,162.79,62.26A13.43,13.43,0,0,1,179.68,59c2.08,1.21,3.6,2.84,3.6,5.41s-.77,4-3.78,3.93c-9.11-.14-13,3.8-13,12.76-.06,14.31,11.46,23,26.23,20C193.91,100.8,195.13,100.1,196.41,101Z" transform="translate(-41.87 -17.04)"/><path class="cls-6" d="M110.31,100.75c4.16.2,8.22,1.13,12.4.72,15.58-1.55,20.58-16.16,16.77-27.12-1.44-4.1-5.33-6.13-10.81-6.1-1.75,0-3.79.58-4.52-1.78a5.63,5.63,0,0,1,1.63-6.22c5-4.64,14.2-3.64,18.6,2.07,12.05,15.64,2.67,40-16.66,43.06A22.15,22.15,0,0,1,110.31,100.75Z" transform="translate(-41.87 -17.04)"/><path class="cls-7" d="M150.16,130.87c29.92,0,55.94,2.16,81.94,5,1.57.17,2.69.77,2.61,2.31-.11,2.08-1.93,1.44-3.08,1.32-8.58-.78-17.16-1.71-25.76-2.48-9.31-.85-18.64-1.44-28-1.88-12.59-.59-25.18-.91-37.78-.48-18.21.63-36.39,1.82-54.52,3.8-3.32.36-6.65.78-10,1-1.17.09-3,.76-3.17-1.23-.14-1.76,1.24-2.25,2.88-2.4,9-.84,17.89-1.92,26.84-2.68C119.37,131.72,136.61,130.7,150.16,130.87Z" transform="translate(-41.87 -17.04)"/><path class="cls-8" d="M197,104.13c2.24,16.24,6.34,20.8,19.4,22-7,6.71-18.29.52-22.49-12.62-7.27,7.32-15.51,10.46-25.37,6.15a19.33,19.33,0,0,1-11.43-13.82c6,5.89,12.48,9,20.45,8.7C185.71,114.15,191.84,110.25,197,104.13Z" transform="translate(-41.87 -17.04)"/><path class="cls-9" d="M109.91,104.29c5.32,5.88,11.35,9.71,19.33,10.14,7.72.41,14.17-2.34,20-7.31-1.24,6.13-5.18,9.83-10.36,12.34-8.17,4-13.76,2.63-26-6-.82,6.23-3.36,11.29-9.36,13.78a13.41,13.41,0,0,1-12.94-.87c5.72-.26,10.73-2,14.57-6.32C109.14,115.56,110.51,110.29,109.91,104.29Z" transform="translate(-41.87 -17.04)"/><path class="cls-10" d="M64.07,111c4.19.93,7.73,3.61,12.12,4.18,11.7,1.57,21.18-2,28.57-11.24.65-.81,1-1.93,2.32-2.27.72,1,.41,2,.19,3a24.16,24.16,0,0,1-31.7,17.45l-4-1.48c-4.69-.31-7.24-3.48-9.47-7.08l1.36-2.1A.83.83,0,0,1,64.07,111Z" transform="translate(-41.87 -17.04)"/><path class="cls-11" d="M243.46,111.08c-.26.94.29,1.4,1,1.75-.25,3.87-4.24,7.37-8.93,7.83-7.82,3.46-15.67,4.42-23.45,0-7.62-4.32-11.77-10.92-12.83-20.6,3.28,3.61,5.4,7.06,8.74,9.44,10.28,7.33,20.94,8,32.13,2.45a7.68,7.68,0,0,1,3-1.13l.31-.07Z" transform="translate(-41.87 -17.04)"/><path class="cls-12" d="M249.23,101.17c2.24-5.64,1.58-9-2.83-12.24-2.38-1.77-1.05-2.93.48-3.71,2.39-1.24,4.69-.54,6.48,1.38a38.23,38.23,0,0,1,2.73,3.93c-.25-7.58.43-13.92,8.78-16.08-1.7,11.75-6.88,21.72-13.36,31.15a1.91,1.91,0,0,1-2.93-.95C248,103.41,247.74,102.05,249.23,101.17Z" transform="translate(-41.87 -17.04)"/><path class="cls-13" d="M153.59,104.73c3.11,5.26,5.51,10.27,5.9,16,.29,4.13-1.56,6.07-5.58,6.22-4.26.16-6.39-1.75-6.27-5.91C147.82,115.1,150.65,110.13,153.59,104.73Z" transform="translate(-41.87 -17.04)"/><path class="cls-14" d="M209.32,74.25c2.22,4.11.58,7.44-2.07,10.52.94,1.07,2.42.63,3.19,1.66,1.09,1.44,1.56,3.66-.42,3.61-4.1-.13-6.64,1.89-9.2,4.76.77-3.84.28-7-2.89-9.41a1.44,1.44,0,0,1-.26-2,1.34,1.34,0,0,1,.2-.21,2.38,2.38,0,0,1,2.57-.9,26.92,26.92,0,0,1,3.29,1.59C203.67,79.48,204.81,75.81,209.32,74.25Z" transform="translate(-41.87 -17.04)"/><path class="cls-15" d="M107.43,89.08c-3.26,1.62-.22,4.18-1,6.45-2.37-3-4.64-6-9-5.31a1.31,1.31,0,0,1-1.5-1.09s0-.08,0-.12a2.68,2.68,0,0,1,.72-2.63c.95-.88,2.17-1,4.1-.94-3.43-3.48-5.14-6.93-2.89-11.27,4.39,1.79,5.91,5.2,5.29,9.57,1.3.47,1.48-.53,2-.89,1.35-.88,2.76-1.07,3.94.12,1.63,1.63-.11,2.47-1,3.51a8.58,8.58,0,0,0-.72,1.21A.93.93,0,0,1,107.5,89Z" transform="translate(-41.87 -17.04)"/><path class="cls-16" d="M244.31,117.18a76.82,76.82,0,0,1-6.88,13.3c-.85,1.21-1.44,3.49-3.71,2.16-2.08-1.2-3-3-2.11-5.45s3.19-3.79,4.72-5.72c1.89-2.34,4.54-3.76,6.87-5.54C244.41,115.06,244.88,115.93,244.31,117.18Z" transform="translate(-41.87 -17.04)"/><path class="cls-17" d="M70.69,121.5c1.32,1.38,2.72,2.68,3.93,4.15a4.39,4.39,0,0,1,.77,5c-1.44,2.88-3.53,3.09-5.33.48a71.24,71.24,0,0,1-7.44-14.67c.23-1.62,1.12-.78,1.64-.33C66.37,118,68.9,119.29,70.69,121.5Z" transform="translate(-41.87 -17.04)"/><path class="cls-18" d="M59.07,97c1.48-5.57,3.39-7.46,7.27-7.29,1.85.08,3.41.72,3.77,2.62.46,2.45-1.74,1.63-2.89,2a7.05,7.05,0,0,0-4.66,5c-.41,1.37-.88,2.72-1.31,4.07-2,1.25-2.66,0-2.63-1.6A18,18,0,0,1,59.07,97Z" transform="translate(-41.87 -17.04)"/><path class="cls-19" d="M245.84,103.38c-1.25-4.17-1.81-8.89-7.66-9.3A1.25,1.25,0,0,1,237,92.77a.63.63,0,0,1,0-.19,2.91,2.91,0,0,1,1.77-2.49,6.11,6.11,0,0,1,7.73,2.56A27.9,27.9,0,0,1,248.09,97a25.53,25.53,0,0,1,.23,5.17C248.3,103.85,247.4,104.44,245.84,103.38Z" transform="translate(-41.87 -17.04)"/><path class="cls-20" d="M107.43,89.08V87.69a32.41,32.41,0,0,1,3.76-1c3-.44,5.28,1.13,5.41,3.78s-1.34,4.54-3.92,4.64-4.84-1.14-5.12-4.27C107.49,90.29,107.47,89.7,107.43,89.08Z" transform="translate(-41.87 -17.04)"/><path class="cls-21" d="M199.29,91.25a4.08,4.08,0,0,1-4.32,4c-2.71.09-4.24-1.6-4.26-4.32s1.58-4.13,4.32-4.21S199.09,88.21,199.29,91.25Z" transform="translate(-41.87 -17.04)"/><path class="cls-22" d="M99.46,91.8c2.43.32,3.74,1.93,3.68,4.58a3.94,3.94,0,0,1-4.32,4.17c-2.59,0-4.17-1.68-4.28-4.32C94.46,93.85,96.78,91.72,99.46,91.8Z" transform="translate(-41.87 -17.04)"/><path class="cls-23" d="M203.92,96.25c.19-2.76,1.87-4.33,4.39-4.33a4.11,4.11,0,0,1,4.3,4.37,4,4,0,0,1-4.32,4.26C205.69,100.55,204.1,98.94,203.92,96.25Z" transform="translate(-41.87 -17.04)"/><path class="cls-24" d="M115.89,119.82c2.56.05,3.9,1.37,3.86,3.77a3.37,3.37,0,0,1-3.6,3.6,3.41,3.41,0,0,1-3.76-3.8C112.39,121.11,113.73,120,115.89,119.82Z" transform="translate(-41.87 -17.04)"/><path class="cls-25" d="M191.62,119.87a3,3,0,0,1,3.13,3.4c0,2.46-1.16,4-3.6,4a3.44,3.44,0,0,1-3.73-3.88C187.46,121.14,188.71,119.82,191.62,119.87Z" transform="translate(-41.87 -17.04)"/><path class="cls-26" d="M64.07,111l-.63.46c-4.73.61-5.57,0-6.35-4.32.57-2.09,1.44-3.72,4.1-2.79C64.7,105.45,64.85,108,64.07,111Z" transform="translate(-41.87 -17.04)"/><path class="cls-27" d="M243.46,111.08l-.34-.25c-.9-2.88-.43-5.27,2.66-6.57,2.36-1.23,3.23.49,4.15,2.11C249.91,111.26,248.23,112.48,243.46,111.08Z" transform="translate(-41.87 -17.04)"/><path class="cls-28" d="M244.31,117.18c-.62-1.73-1.28-.35-1.78,0-2,1.5-3.86,3.23-6.2,4.26l-.81-.82c3-2.54,7.06-4,8.93-7.83C245.75,114.3,245.46,115.74,244.31,117.18Z" transform="translate(-41.87 -17.04)"/><path class="cls-29" d="M70.69,121.5c-3.14-1-4.73-4.41-8.1-5a2.5,2.5,0,0,1-.53-2.93l9.47,7.08Z" transform="translate(-41.87 -17.04)"/><path class="cls-30" d="M61.19,104.35c-1.91.13-3.1,1.33-4.1,2.79l-1.44-1.59c3.25-.56,2.47-2.8,2-4.89,1.07-1,.59-2.58,1.39-3.69,1,2.06-1.72,5.36,2.16,6.43Z" transform="translate(-41.87 -17.04)"/><path class="cls-31" d="M249.93,106.37c-1.24-1-2.42-2.11-4.15-2.11l.06-.87c1.7,0,2.16-1.07,2.16-2.55,0-1.29.05-2.57.07-3.86l1.15,4.21c-.3,2-.35,3.89,2.25,4.42Z" transform="translate(-41.87 -17.04)"/><path class="cls-32" d="M141.5,166.27a1.06,1.06,0,0,1-.35-.09,3.57,3.57,0,0,1-.49-.38c.18-.1.36-.3.54-.3h24.65c.12,0,.31,0,.34.08.49.81-.38.47-.59.72Z" transform="translate(-41.87 -17.04)"/><path class="cls-33" d="M119.75,142.52a6.83,6.83,0,0,1,7.82,2.81,6.36,6.36,0,0,1,.31,7.37c-1.68,2.78-4.13,4.19-7.5,3.43-.39-.42-.78-.83-1.14-1.26-2.73-3.56-3-7.2-.28-10.88A9,9,0,0,0,119.75,142.52Z" transform="translate(-41.87 -17.04)"/><path class="cls-34" d="M91.69,145.93c3.7,1.55,5.4,4.17,4.91,7.57s-2.94,5.53-7.14,6.1c-.81-.84-2-1.14-2.76-2.11-2.94-4.46-2.47-7.68,1.56-10.8C89.42,146.33,90.34,145.19,91.69,145.93Z" transform="translate(-41.87 -17.04)"/><path class="cls-35" d="M155.14,141.52c3.6.67,5.35,3.14,5.5,6.48a6.33,6.33,0,0,1-4.73,6.76c-1.83.35-3.38-.49-5-1.16-2.48-3.49-3.16-7,0-10.5A5.62,5.62,0,0,1,155.14,141.52Z" transform="translate(-41.87 -17.04)"/><path class="cls-36" d="M219.89,145.94a6.49,6.49,0,0,1,4.76,6.72,6.35,6.35,0,0,1-4.72,6.39c-1.88.43-3.42-.54-5-1.2-2.89-4.25-2.74-6.9.59-10.81C216.89,146.44,218.2,145.39,219.89,145.94Z" transform="translate(-41.87 -17.04)"/><path class="cls-37" d="M188.3,143c5.58,3.22,5.81,8.55.52,12.37a9.36,9.36,0,0,1-4.67-.15c-3.45-3.25-3.84-6.14-1.45-10.56C184.08,142.39,186.44,143.55,188.3,143Z" transform="translate(-41.87 -17.04)"/><path class="cls-38" d="M188.3,143a7.65,7.65,0,0,1-4.47,1.57c-3.73,3.6-3.54,6.78.58,10.08l4.41.72c-3.7,1.72-6.66,1.19-8.92-1.67a6.56,6.56,0,0,1-.39-8.32C181.5,142.34,184.46,141.57,188.3,143Z" transform="translate(-41.87 -17.04)"/><path class="cls-39" d="M155.14,141.52a5.18,5.18,0,0,1-3.17,1.62c-4.18,3-4.32,6.24-.42,10,1.73-.21,2.92,1,4.36,1.62-3.37,1.5-6,.28-8.09-2.38a6.32,6.32,0,0,1-.25-7.93C149.39,141.86,151.76,140.31,155.14,141.52Z" transform="translate(-41.87 -17.04)"/><path class="cls-40" d="M87.91,157.52c.9.42,1.92.72,1.55,2.1-4.92-.72-7.85-4.25-6.93-8.43s4.79-6.48,9.16-5.24l-2.51,1.44c-2.94.06-3.86,2.32-4.32,4.53A4.89,4.89,0,0,0,87.91,157.52Z" transform="translate(-41.87 -17.04)"/><path class="cls-41" d="M219.89,145.94c-1.29.48-2.36,1.52-3.84,1.53-2.58,1.24-3.11,3.51-3.13,6.07,0,1.09.88,2.27-.32,3.23-3.23-2.16-2.59-5-1.2-7.81C213,145.86,216.21,144.81,219.89,145.94Z" transform="translate(-41.87 -17.04)"/><path class="cls-42" d="M212.61,156.8c-.38-2.28-1.44-4.55-.15-6.88.8-1.44,1.81-2.48,3.61-2.42-2.75,3.24-2.68,6.58-.38,10-.93,2-2,0-3,.11Z" transform="translate(-41.87 -17.04)"/><path class="cls-43" d="M120.4,154.58v1.55c-4.36-1.18-5.9-3.33-5.69-7.93,1.39-.42,2,.41,2.4,1.53C117.11,152.05,118.47,153.49,120.4,154.58Z" transform="translate(-41.87 -17.04)"/><path class="cls-44" d="M115.91,150.32l-1.22-2.16a6.52,6.52,0,0,1,5-5.67l.6,1.4c-1.73,1.07-3,2.41-3.17,4.59C117.11,149.28,116.9,150.12,115.91,150.32Z" transform="translate(-41.87 -17.04)"/><path class="cls-45" d="M212.64,157.59l3-.11c1.69-.2,2.88,1,4.26,1.57C217.11,160.53,214.77,159.58,212.64,157.59Z" transform="translate(-41.87 -17.04)"/><path class="cls-46" d="M115.91,150.32c.15-3.06.79-5.76,4.43-6.4-2.88,3.56-3,7.11,0,10.66C117.67,154.43,116.72,152.48,115.91,150.32Z" transform="translate(-41.87 -17.04)"/><path class="cls-47" d="M87.91,157.52c-3.55-.48-4.46-3-4-5.93.45-2.57,1.72-5,5.22-4.22C85.1,150.63,84.91,152.24,87.91,157.52Z" transform="translate(-41.87 -17.04)"/><path class="cls-48" d="M151.55,153.2c-2.47-.72-3.86-2.35-3.71-4.84s1-4.89,4.13-5.19C149.47,146.39,149.34,149.73,151.55,153.2Z" transform="translate(-41.87 -17.04)"/><path class="cls-49" d="M184.41,154.64c-3.23-.52-4.32-2.82-4.18-5.65.09-2.17.76-4.29,3.61-4.41C181.5,148.05,182.11,151.38,184.41,154.64Z" transform="translate(-41.87 -17.04)"/></g></g></svg>